<svg data-name="Layer 2" viewBox="0 0 24 24" xmlns="http://www.w3.org/2000/svg"><path d="M17 16a1 1 0 0 1-.71-1.71l1.3-1.29L16 11.41l-3.29 3.3a1 1 0 0 1-1.42-1.42l4-4a1 1 0 0 1 1.42 0l3 3a1 1 0 0 1 0 1.41l-2 2a1 1 0 0 1-.71.3ZM12 9a1 1 0 0 1-.71-.29L9 6.41l-2.29 2.3a1 1 0 0 1-1.42-1.42l3-3a1 1 0 0 1 1.42 0l3 3a1 1 0 0 1 0 1.42A1 1 0 0 1 12 9Z" fill="#ffffff" class="fill-333333"></path><path d="M6 18a1 1 0 0 1-.71-.29l-1-1a1 1 0 0 1 0-1.42l4-4a1 1 0 0 1 1.42 0l3 3a1 1 0 0 1-1.42 1.42L9 13.41 6.41 16l.3.29a1 1 0 0 1 0 1.42A1 1 0 0 1 6 18Z" fill="#ffffff" class="fill-333333"></path><path d="M13 21a1 1 0 0 1-1-.92l-1-12a1 1 0 0 1 .29-.79L13.59 5l-1.3-1.29a1 1 0 0 1 1.42-1.42l2 2a1 1 0 0 1 0 1.42L13 8.38l1 11.54a1 1 0 0 1-.92 1.08Z" fill="#ffffff" class="fill-333333"></path><path d="M16 22H8a1 1 0 0 1 0-2h8a1 1 0 0 1 0 2ZM16 11a1 1 0 0 1-.71-.29 1 1 0 0 1 0-1.42l4-4a1 1 0 1 1 1.42 1.42l-4 4A1 1 0 0 1 16 11ZM7 15a1 1 0 0 1-.71-.29l-2-2a1 1 0 0 1 1.42-1.42l2 2a1 1 0 0 1 0 1.42A1 1 0 0 1 7 15ZM19 18a1 1 0 0 1-.71-.29l-2-2a1 1 0 0 1 1.42-1.42l2 2a1 1 0 0 1 0 1.42A1 1 0 0 1 19 18Z" fill="#ffffff" class="fill-333333"></path><path d="M11.42 22h-.05a1 1 0 0 1-.95-1L11 8a1 1 0 0 1 1-1 1 1 0 0 1 1 1l-.58 13a1 1 0 0 1-1 1Z" fill="#ffffff" class="fill-333333"></path></svg>